<?xml version="1.0" encoding="utf-8"?>
<!-- Generator: Adobe Illustrator 16.0.0, SVG Export Plug-In . SVG Version: 6.00 Build 0)  -->
<!DOCTYPE svg PUBLIC "-//W3C//DTD SVG 1.1//EN" "http://www.w3.org/Graphics/SVG/1.1/DTD/svg11.dtd">
<svg version="1.1" id="Layer_1" xmlns="http://www.w3.org/2000/svg" xmlns:xlink="http://www.w3.org/1999/xlink" x="0px" y="0px"
	 width="71px" height="87px" viewBox="0 -0.06 71 87" enable-background="new 0 -0.06 71 87" xml:space="preserve">
<path d="M54.946,54.895l-10.007-1.932v-4c3.917-2.813,6.354-6.885,6.354-12.052v-0.557c3.198-1.916,4.729-5.315,4.778-9.087
	c0.096-0.928,0.068-11.906,0.068-11.906c0-6.657-5.102-12.002-11.787-12.002H28.007c-2.923,0-5.511,1.746-6.594,4.444L21.1,8.583
	c-0.411,1.023-1.182,1.857-2.17,2.349c-2.421,1.207-3.59,4.135-3.59,6.831v9.601c0,3.771,1.64,7.077,4.848,8.992v0.556
	c0,5.167,2.437,10.04,6.354,12.854v3.199l-10.007,1.931c-7.77,1.72-13.194,8.45-13.194,16.375v12.097h64.8V71.271
	C68.14,63.346,62.715,56.616,54.946,54.895z M20.188,23.936v9.242c-1.635-1.497-2.449-4.322-2.449-6.616v-8.801
	c0-1.711,0.812-3.758,2.351-4.521c1.555-0.774,2.77-2.087,3.419-3.697l0.312-0.78c0.688-1.714,2.465-3.001,4.318-3.001h16
	c5.253-0.003,9.57,4.244,9.582,9.489c0.162,0.18,0.019,11.312,0.019,11.312c0,2.293-0.813,5.12-2.447,6.617v-9.241
	c0-4.232-3.704-7.776-7.952-7.776c-3.661,0-6.59,2.697-7.31,6.27l-0.057,0.286h-0.468l-0.057-0.286
	c-0.719-3.573-3.895-6.167-7.338-6.251C23.894,16.169,20.194,19.704,20.188,23.936z M22.54,36.963V24.162c0-2.807,2.78-5.6,5.6-5.6
	c2.43,0,4.292,2.005,4.769,4.376l0.833,2.024h4l0.833-2.024c0.476-2.372,2.337-4.376,4.767-4.376c2.818,0,5.6,1.993,5.6,4.8v13.602
	c0,7.115-6.054,12.853-13.199,12.853C28.595,49.817,22.54,44.079,22.54,36.963z M28.939,53.765v-3.201
	c1.977,0.906,4.887,1.603,7.2,1.603c2.314,0,4.425-0.695,6.4-1.603v3.201l-7.2,11.2L28.939,53.765z M32.939,65.765l-6.398-3.199
	l0.8-7.2L32.939,65.765z M44.14,55.366l0.8,7.2l-8,4L44.14,55.366z M52.939,80.967H18.54v-5.602h-2.4v5.602H5.74v-9.602
	c0-6.703,4.628-12.949,11.199-14.402l3.2-0.799l0.048,10.428H16.3c-2.859,0-4.96,1.928-4.96,4.773v6.4h4v-2.4h-1.6l-0.032-3.613
	c0-1.424,1.002-2.787,2.432-2.787h10.4c1.429,0,3.2,0.978,3.2,2.4v4H28.14v2.4h4v-6.4c0-2.848-2.613-4.773-5.472-4.773l-4.128-0.026
	V56.167l2.538-0.519l-0.938,7.718l12,6.4l11.2-6.4l-0.938-7.718l2.537,0.519v10.399c-2.229,0.577-4.128,2.789-4.128,5.188
	c0,2.848,2.325,5.162,5.186,5.162c0.947,0,2.178-0.306,2.942-0.75V80.967z M50.133,68.973c1.547,0,2.805,1.253,2.805,2.793
	s-1.258,2.793-2.805,2.793s-2.805-1.253-2.805-2.793S48.586,68.973,50.133,68.973z M65.74,80.967h-10.4v-5.602h-1.6
	c1.088-0.947,1.438-2.062,1.438-3.613c0-2.397-1.609-4.609-3.84-5.188l-0.048-9.836l3.093,0.686
	c6.572,1.453,11.354,7.248,11.354,13.951v9.602H65.74z"/>
</svg>
